# xmcd
#
# Track frame offsets:
#	150
#	17852
#	36553
#	57021
#	76784
#	96987
#	113556
#	146391
#	169217
#	193249
#	211480
#	231251
#	248333
#	270101
#	291511
#	312972
#
# Disc length: 4462 seconds
#
# Revision: 1
# Processed by: cddbd v1.5.1PL0 Copyright (c) Steve Scherf et al.
# Submitted via: EasyCDDAExtractor 7.0.0.1
#
DISCID=dd116c10
DTITLE=Chris Rea - Golden Collection 
DYEAR=1900
DGENRE=Blues
TTITLE0=Josephine 
TTITLE1=Summer Long
TTITLE2=The Road To Hell (Part II) 
TTITLE3=You Must Be Evil
TTITLE4=That's What They Always Say 
TTITLE5=I Just Wanna Be With You
TTITLE6=Auberge 
TTITLE7=Looking For The Summer 
TTITLE8=God's Great Banana Skin 
TTITLE9=I Ain't The Fool 
TTITLE10=Soft Top, Hard Shoulder 
TTITLE11=Soup Of The Day 
TTITLE12=Between The Devil And The Deep Blue Sea 
TTITLE13=As Long As I Have Your Love 
TTITLE14=Sweet Summer Day
TTITLE15=The Blue Cafe 
EXTD=
EXTT0=
EXTT1=
EXTT2=
EXTT3=
EXTT4=
EXTT5=
EXTT6=
EXTT7=
EXTT8=
EXTT9=
EXTT10=
EXTT11=
EXTT12=
EXTT13=
EXTT14=
EXTT15=
PLAYORDER=
